<svg id="visual" viewBox="0 0 900 600" width="900" height="600" xmlns="http://www.w3.org/2000/svg" xmlns:xlink="http://www.w3.org/1999/xlink" version="1.1"><path d="M0 519L21.5 523C43 527 86 535 128.8 535.8C171.7 536.7 214.3 530.3 257.2 525.7C300 521 343 518 385.8 515.5C428.7 513 471.3 511 514.2 519.8C557 528.7 600 548.3 642.8 558C685.7 567.7 728.3 567.3 771.2 565.7C814 564 857 561 878.5 559.5L900 558L900 601L878.5 601C857 601 814 601 771.2 601C728.3 601 685.7 601 642.8 601C600 601 557 601 514.2 601C471.3 601 428.7 601 385.8 601C343 601 300 601 257.2 601C214.3 601 171.7 601 128.8 601C86 601 43 601 21.5 601L0 601Z" fill="#ffffff" stroke-linecap="round" stroke-linejoin="miter"></path></svg>